<?xml version="1.0"?><svg width="800" height="800" xmlns="http://www.w3.org/2000/svg" xmlns:xlink="http://www.w3.org/1999/xlink">
 <defs>
  <linearGradient id="linearGradient2289">
   <stop stop-color="#97979a" offset="0" id="stop2291"/>
   <stop stop-color="#000000" offset="1" id="stop2293"/>
  </linearGradient>
  <radialGradient xlink:href="#linearGradient2289" r="459.39603" id="svg_1" gradientUnits="userSpaceOnUse" gradientTransform="scale(1.006762,0.993283)" fy="187.70264" fx="227.45299" cy="187.70264" cx="227.45299">
   <stop/>
   <stop/>
  </radialGradient>
 </defs>
 <g>
  <title>Layer 1</title>
  <path fill="url(#svg_1)" fill-rule="nonzero" stroke="#000000" stroke-width="5.46" stroke-linecap="round" stroke-linejoin="round" stroke-miterlimit="4" stroke-dashoffset="0" id="path2155" d="m674.291504,365.964783c0,168.726379 -138.666382,305.506104 -309.720062,305.506104c-171.053711,0 -309.720112,-136.779724 -309.720112,-305.506104c0,-168.726379 138.666401,-305.506104 309.720081,-305.506104c171.053711,0 309.720093,136.779724 309.720093,305.506104l0,0z"/>
  <path fill="#ffffff" fill-rule="nonzero" stroke-width="2.66" stroke-linecap="round" stroke-linejoin="round" stroke-miterlimit="4" stroke-dashoffset="0" id="path2157" d="m379.319122,280.515198c0.023132,63.099579 -49.507355,119.698303 -110.614227,126.399414c-61.106903,6.701141 -110.637344,-39.034271 -110.614212,-102.138947c-0.023132,-63.099609 49.507309,-119.698303 110.614212,-126.399429c61.106873,-6.701141 110.63736,39.034286 110.614227,102.138962z"/>
  <path fill="#ffffff" fill-opacity="0.183784" fill-rule="evenodd" stroke-width="1.0000000px" id="path2357" d="m74.07299,314.114136c31.806297,-75.539963 34.595833,-108.207001 94.801155,-160.634003c38.695282,-34.437004 81.559235,-64.524986 153.7677,-77.400642c68.232727,-4.924088 112.843842,6.911987 112.843842,6.911987c-73.552063,-21.866837 -130.169495,11.637695 -208.341675,56.902718c-60.243256,41.551208 -111.325249,100.667877 -153.071022,174.21994z"/>
  <path fill="#ffffff" fill-opacity="0.183784" fill-rule="evenodd" stroke-width="1.0000000px" id="path2377" d="m335.730072,661.489075c0,0 85.292053,8.123108 134.030365,-12.18457c48.738281,-20.307617 117.784241,-81.23053 142.153381,-121.845764c24.369141,-40.615265 52.799866,-97.476654 52.799866,-134.030365c0,-36.553711 0,-93.4151 -12.184631,-117.784241c-12.184509,-24.369186 -28.430664,-56.861389 -28.430664,-56.861389c0,0 24.369202,77.169006 16.246155,129.968842c-8.123108,52.799835 -20.307617,93.41507 -56.861389,162.46106c-44.676758,64.984375 -56.861328,81.230469 -105.59967,117.784241c-69.045929,36.553772 -142.153412,32.492188 -142.153412,32.492188z"/>
  <path fill="#000000" stroke-width="1.0000000px" id="text2272" d="m259.149414,286.286896c-7.79071,-4.292938 -15.125259,-5.999023 -22.003708,-5.118286c-6.824493,0.910614 -12.330139,4.307159 -16.517014,10.189636c-4.186935,5.882477 -5.256271,11.723602 -3.207993,17.523438c2.102295,5.82959 7.048782,10.890869 14.839447,15.183868c7.790558,4.292938 15.125137,5.999023 22.003723,5.118286c6.909439,-0.924377 12.442154,-4.306 16.598129,-10.144897c4.186829,-5.882477 5.229095,-11.738525 3.126862,-17.568146c-2.04834,-5.799805 -6.994812,-10.861084 -14.839447,-15.183899m-12.391953,-14.654144c-6.040817,-5.269928 -9.655762,-10.932098 -10.844864,-16.986526c-1.135101,-6.024506 4.258057,-12.819458 8.227921,-18.396988c5.551468,-7.799683 14.369339,-11.078354 24.465805,-11.823975c10.15036,-0.715637 16.261139,2.235672 28.27179,8.853912c12.064514,6.648209 19.919556,14.131195 23.565125,22.44899c3.645264,8.317886 2.69223,16.376694 -2.859161,24.176407c-3.96994,5.577484 -9.309692,9.217102 -16.019226,10.918854c-6.655701,1.731628 -13.969238,1.371704 -21.940704,-1.079712c6.844269,5.834106 10.922333,12.115479 12.234283,18.844086c1.365814,6.758423 -0.701019,24.257233 -5.135925,30.488312c-6.730194,9.455505 -20.873199,13.322418 -31.666275,14.411987c-10.73912,1.119324 -23.372421,-6.802002 -36.735443,-14.165619c-13.363113,-7.363647 -15.347626,-20.354462 -18.945465,-29.374054c-3.543793,-8.989807 -1.950638,-18.212463 4.779449,-27.66803c4.434998,-6.231049 10.405869,-10.281189 17.912628,-12.150452c7.506683,-1.869171 15.736679,-1.368256 24.690063,1.502808m8.834991,-24.159317c-3.597717,5.054642 -4.456833,10.071335 -2.577377,15.050064c1.933411,5.008636 6.443817,9.465637 13.531219,13.371033c7.033081,3.87561 13.532349,5.485413 19.497803,4.829376c6.019318,-0.62619 10.82785,-3.466553 14.425598,-8.521179c3.597504,-5.054535 4.402557,-10.101013 2.41507,-15.139496c-1.933624,-5.008545 -6.416962,-9.450638 -13.450043,-13.326309c-7.087402,-3.905334 -15.601624,-7.517929 -21.566864,-6.861984c-5.911316,0.685898 -8.677856,5.543976 -12.275406,10.598495"/>
 </g>
</svg>